HIERARCHY
ROOT Hips
{
	OFFSET 0.000000 88.474243 0.000000
	CHANNELS 6 Xposition Yposition Zposition Zrotation Yrotation Xrotation 
	JOINT Hips_Spine
	{
		OFFSET 0.000000 0.000000 0.000000
		CHANNELS 3 Zrotation Yrotation Xrotation
		JOINT Spine
		{
			OFFSET 0.005100 8.711998 -0.691000
			CHANNELS 3 Zrotation Yrotation Xrotation
			JOINT Spine1
			{
				OFFSET -0.009200 8.660301 -1.275000
				CHANNELS 3 Zrotation Yrotation Xrotation
				JOINT Spine2
				{
					OFFSET 0.006300 9.852501 -1.857000
					CHANNELS 3 Zrotation Yrotation Xrotation
					JOINT Spine2_Neck
					{
						OFFSET 0.000000 0.000000 0.000000
						CHANNELS 3 Zrotation Yrotation Xrotation
						JOINT Neck
						{
							OFFSET 0.016300 11.420799 -0.263300
							CHANNELS 3 Zrotation Yrotation Xrotation
							End Site #name: Head
							{
								OFFSET -0.019200 9.262405 2.362500
							}
						}
					}
					JOINT Spine2_LeftShoulder
					{
						OFFSET 0.000000 0.000000 0.000000
						CHANNELS 3 Zrotation Yrotation Xrotation
						JOINT LeftShoulder
						{
							OFFSET 5.616900 6.732201 -0.345700
							CHANNELS 3 Zrotation Yrotation Xrotation
							JOINT LeftArm
							{
								OFFSET 10.664888 -0.183372 -2.440700
								CHANNELS 3 Zrotation Yrotation Xrotation
								JOINT LeftForeArm
								{
									OFFSET 27.459126 0.000000 0.000000
									CHANNELS 3 Zrotation Yrotation Xrotation
									End Site #name: LeftHand
									{
										OFFSET 21.306858 0.000000 0.000000
									}
								}
							}
						}
					}
					JOINT Spine2_RightShoulder
					{
						OFFSET 0.000000 0.000000 0.000000
						CHANNELS 3 Zrotation Yrotation Xrotation
						JOINT RightShoulder
						{
							OFFSET -5.580300 6.737503 -0.344400
							CHANNELS 3 Zrotation Yrotation Xrotation
							JOINT RightArm
							{
								OFFSET -10.679335 -0.188484 -2.383900
								CHANNELS 3 Zrotation Yrotation Xrotation
								JOINT RightForeArm
								{
									OFFSET -27.503529 0.000000 0.000000
									CHANNELS 3 Zrotation Yrotation Xrotation
									End Site #name: RightHand
									{
										OFFSET -21.306808 0.000000 0.000000
									}
								}
							}
						}
					}
				}
			}
		}
	}
	JOINT Hips_LeftUpLeg
	{
		OFFSET 0.000000 0.000000 0.000000
		CHANNELS 3 Zrotation Yrotation Xrotation
		JOINT LeftUpLeg
		{
			OFFSET 6.857700 -6.739601 0.312100
			CHANNELS 3 Zrotation Yrotation Xrotation
			JOINT LeftLeg
			{
				OFFSET -0.367590 -34.731552 -4.572400
				CHANNELS 3 Zrotation Yrotation Xrotation
				End Site #name: LeftFoot
				{
					OFFSET 0.367590 -34.656704 -6.067400
				}
			}
		}
	}
	JOINT Hips_RightUpLeg
	{
		OFFSET 0.000000 0.000000 0.000000
		CHANNELS 3 Zrotation Yrotation Xrotation
		JOINT RightUpLeg
		{
			OFFSET -6.876100 -6.733299 0.301000
			CHANNELS 3 Zrotation Yrotation Xrotation
			JOINT RightLeg
			{
				OFFSET 0.347353 -34.795158 -4.515900
				CHANNELS 3 Zrotation Yrotation Xrotation
				End Site #name: RightFoot
				{
					OFFSET -0.347353 -34.589367 -6.070300
				}
			}
		}
	}
}
MOTION
Frames: 7
Frame Time: 0.041667
-10.595830 -5.717313 20.188750 9.788522 60.175005 7.648847 0.000000 -0.000000 0.000000 -0.985845 5.066314 7.234175 -2.964393 14.292042 6.129985 0.000000 0.000000 0.000000 -2.307487 14.676231 3.490842 -5.167130 -29.130769 18.734653 -2.664276 14.048151 2.974781 -3.703547 -2.287211 0.250161 -41.069841 -38.963044 36.874828 90.930617 -81.372198 -142.599914 -1.746811 14.861567 4.477027 20.720552 35.348590 18.004405 -33.875867 54.064043 -56.523915 -10.731250 -0.880075 -36.017829 -0.000000 -0.000000 0.000000 3.834973 -20.902238 -61.857286 -7.524943 -8.155377 65.743533 0.000000 -0.000000 0.000000 -13.336747 -22.787382 2.192496 -15.610082 -9.388421 52.042202 
-10.933402 -5.914526 20.596807 9.795955 60.183451 8.533700 0.000000 -0.000000 0.000000 -1.208204 5.150067 7.457686 -3.527072 14.786668 6.804238 0.000000 0.000000 0.000000 -2.854480 15.081322 4.249841 -6.171986 -30.845285 19.542485 -3.218790 14.457822 3.661598 -4.007772 -1.626425 0.137096 -40.307789 -39.282662 35.739578 69.572746 -77.454571 -127.603956 -2.300453 15.285223 4.933000 19.782957 35.285390 17.603471 -37.511499 58.703329 -53.171041 -10.916676 -3.664677 -28.762773 0.000000 -0.000000 0.000000 4.482630 -20.453768 -63.580075 -8.310265 -8.140374 66.664376 0.000000 -0.000000 0.000000 -13.081815 -23.140347 1.476953 -15.313803 -9.915924 52.488601 
-11.184329 -6.091433 20.927809 9.575432 59.913230 9.191192 0.000000 -0.000000 0.000000 -1.393293 5.233267 7.703795 -3.995622 15.213202 7.406890 0.000000 0.000000 0.000000 -3.304357 15.436480 4.885828 -7.025631 -32.212840 20.112291 -3.677015 14.812760 4.314390 -4.299899 -0.924007 0.023031 -39.040976 -39.376363 33.889285 57.777889 -73.219521 -121.648508 -2.766461 15.657866 5.355082 18.974050 34.785402 17.088625 -44.149694 62.631842 -54.142298 -11.669043 -5.000700 -21.327637 0.000000 -0.000000 0.000000 5.090334 -19.930579 -65.160964 -8.946366 -8.151002 67.442402 0.000000 -0.000000 0.000000 -12.869513 -23.485091 0.726789 -14.965778 -10.316365 52.793392 
-11.339822 -6.250770 21.179031 9.152269 59.434770 9.637735 0.000000 -0.000000 0.000000 -1.539132 5.308407 7.907509 -4.337800 15.548032 7.928292 0.000000 0.000000 0.000000 -3.634044 15.712139 5.507612 -7.758166 -33.203649 20.564785 -4.015505 15.101790 4.890865 -4.572683 -0.186599 -0.098276 -37.214035 -39.230061 31.681768 51.061679 -69.269217 -119.900374 -3.085640 15.971222 5.743863 18.535782 34.330793 16.740131 -53.163286 65.704122 -58.253503 -12.115727 -5.984828 -13.813554 0.000000 -0.000000 0.000000 5.677738 -19.268105 -66.571678 -9.339380 -8.177520 68.143766 0.000000 -0.000000 0.000000 -12.688832 -23.778524 -0.092489 -14.616133 -10.537758 53.087821 
-11.389657 -6.392707 21.350470 8.557933 58.719323 9.849984 0.000000 -0.000000 0.000000 -1.647527 5.364206 8.075109 -4.551550 15.800471 8.351589 0.000000 0.000000 0.000000 -3.834221 15.898033 6.087405 -8.386779 -33.782785 20.990147 -4.228533 15.311326 5.366734 -4.820138 0.553521 -0.221294 -34.995472 -38.843465 29.111649 47.013055 -65.871294 -120.153701 -3.299094 16.197661 6.084181 18.422320 33.792595 16.348566 -60.869542 68.165262 -61.484389 -12.327085 -6.514074 -6.536809 0.000000 -0.000000 0.000000 6.167611 -18.450611 -67.795637 -9.477398 -8.194823 68.788834 0.000000 -0.000000 0.000000 -12.571076 -24.082750 -0.926013 -14.261473 -10.534540 53.388128 
-11.338236 -6.505573 21.442731 7.855706 57.847535 9.886719 0.000000 -0.000000 0.000000 -1.713524 5.387517 8.167659 -4.660749 15.929882 8.661850 0.000000 0.000000 0.000000 -3.930958 15.981505 6.570323 -8.874789 -33.936586 21.403818 -4.336888 15.426872 5.752098 -5.171335 1.364825 -0.358467 -30.465124 -37.051621 25.010411 45.073926 -63.124816 -121.615758 -3.410496 16.317375 6.384125 18.517181 33.150511 15.887948 -65.664369 70.011156 -62.727164 -12.121294 -6.392574 0.166689 0.000000 -0.000000 0.000000 6.536263 -17.547336 -68.783725 -9.409610 -8.238378 69.366142 0.000000 -0.000000 0.000000 -12.454336 -24.373865 -1.753302 -13.864379 -10.284233 53.666322 
-11.191207 -6.576455 21.456148 7.228001 56.981968 9.958334 0.000000 -0.000000 0.000000 -1.760477 5.380537 8.208899 -4.703250 15.932605 8.875270 0.000000 0.000000 0.000000 -3.965270 15.945913 6.950877 -9.176485 -33.695850 21.764946 -4.373673 15.438188 6.033314 -5.539284 1.975355 -0.475026 -25.859646 -34.520794 20.865280 44.900617 -61.117770 -123.731836 -3.456711 16.318189 6.630803 18.543132 32.472831 15.409368 -65.272183 71.686553 -59.494757 -11.663782 -5.842819 6.018232 0.000000 -0.000000 0.000000 6.843957 -16.599548 -69.597352 -9.276551 -8.296511 69.925021 0.000000 -0.000000 0.000000 -12.332649 -24.585768 -2.560682 -13.447076 -9.827858 53.920544 
